{
	"asset":{
		"generator":"Khronos glTF Blender I/O v5.0.21",
		"version":"2.0"
	},
	"scene":0,
	"scenes":[
		{
			"name":"Scene",
			"nodes":[
				0
			]
		}
	],
	"nodes":[
		{
			"mesh":0,
			"name":"Chloe_hair2_back_03.001",
			"rotation":[
				0.013800879009068012,
				-0.00599239906296134,
				0.0005962264840491116,
				0.9998867511749268
			],
			"scale":[
				0.25172120332717896,
				0.25172117352485657,
				0.25172120332717896
			],
			"translation":[
				-0.0025562159717082977,
				0.06504945456981659,
				0.9820529222488403
			]
		}
	],
	"materials":[
		{
			"doubleSided":true,
			"name":"lambert1.009",
			"pbrMetallicRoughness":{
				"baseColorTexture":{
					"index":0
				},
				"metallicFactor":0.6136363744735718,
				"metallicRoughnessTexture":{
					"index":1
				}
			}
		},
		{
			"doubleSided":true,
			"name":"lambert1.008",
			"pbrMetallicRoughness":{
				"baseColorTexture":{
					"index":2
				},
				"metallicFactor":0.3909090757369995,
				"metallicRoughnessTexture":{
					"index":3
				}
			}
		},
		{
			"doubleSided":true,
			"name":"lambert1.010",
			"pbrMetallicRoughness":{
				"baseColorTexture":{
					"index":4
				},
				"metallicFactor":0.3272727131843567,
				"metallicRoughnessTexture":{
					"index":5
				}
			}
		},
		{
			"doubleSided":true,
			"name":"lambert1.011",
			"pbrMetallicRoughness":{
				"baseColorTexture":{
					"index":6
				},
				"metallicFactor":0.9681817889213562,
				"metallicRoughnessTexture":{
					"index":7
				}
			}
		}
	],
	"meshes":[
		{
			"name":"Mesh.002",
			"primitives":[
				{
					"attributes":{
						"POSITION":0,
						"NORMAL":1,
						"TEXCOORD_0":2,
						"COLOR_0":3,
						"COLOR_1":4
					},
					"indices":5,
					"material":0
				},
				{
					"attributes":{
						"POSITION":6,
						"NORMAL":7,
						"TEXCOORD_0":8,
						"COLOR_0":9,
						"COLOR_1":10
					},
					"indices":11,
					"material":1
				},
				{
					"attributes":{
						"POSITION":12,
						"NORMAL":13,
						"TEXCOORD_0":14,
						"COLOR_0":15,
						"COLOR_1":16
					},
					"indices":17,
					"material":2
				},
				{
					"attributes":{
						"POSITION":18,
						"NORMAL":19,
						"TEXCOORD_0":20,
						"COLOR_0":21,
						"COLOR_1":22
					},
					"indices":23,
					"material":3
				}
			]
		}
	],
	"textures":[
		{
			"sampler":0,
			"source":0
		},
		{
			"sampler":0,
			"source":1
		},
		{
			"sampler":0,
			"source":2
		},
		{
			"sampler":0,
			"source":3
		},
		{
			"sampler":0,
			"source":4
		},
		{
			"sampler":0,
			"source":5
		},
		{
			"sampler":0,
			"source":6
		},
		{
			"sampler":0,
			"source":7
		}
	],
	"images":[
		{
			"mimeType":"image/png",
			"name":"lambert1.002_BaseColor",
			"uri":"textures/lambert1.002_BaseColor.png"
		},
		{
			"mimeType":"image/png",
			"name":"lambert1.002_Roughness",
			"uri":"textures/lambert1.002_Roughness.png"
		},
		{
			"mimeType":"image/png",
			"name":"lambert1_BaseColor",
			"uri":"textures/lambert1_BaseColor.png"
		},
		{
			"mimeType":"image/png",
			"name":"lambert1_Roughness",
			"uri":"textures/lambert1_Roughness.png"
		},
		{
			"mimeType":"image/png",
			"name":"lambert1.006_BaseColor",
			"uri":"textures/lambert1.006_BaseColor.png"
		},
		{
			"mimeType":"image/png",
			"name":"lambert1.006_Roughness",
			"uri":"textures/lambert1.006_Roughness.png"
		},
		{
			"mimeType":"image/png",
			"name":"lambert1.007_BaseColor",
			"uri":"textures/lambert1.007_BaseColor.png"
		},
		{
			"mimeType":"image/png",
			"name":"lambert1.007_Roughness",
			"uri":"textures/lambert1.007_Roughness.png"
		}
	],
	"accessors":[
		{
			"bufferView":0,
			"componentType":5126,
			"count":18847,
			"max":[
				0.15608280897140503,
				0.34612077474594116,
				0.11561115086078644
			],
			"min":[
				-0.1461714655160904,
				-0.09715927392244339,
				-0.15843188762664795
			],
			"type":"VEC3"
		},
		{
			"bufferView":1,
			"componentType":5126,
			"count":18847,
			"type":"VEC3"
		},
		{
			"bufferView":2,
			"componentType":5126,
			"count":18847,
			"type":"VEC2"
		},
		{
			"bufferView":3,
			"componentType":5121,
			"count":18847,
			"normalized":true,
			"type":"VEC4"
		},
		{
			"bufferView":4,
			"componentType":5123,
			"count":18847,
			"normalized":true,
			"type":"VEC4"
		},
		{
			"bufferView":5,
			"componentType":5123,
			"count":107619,
			"type":"SCALAR"
		},
		{
			"bufferView":6,
			"componentType":5126,
			"count":10553,
			"max":[
				0.25761252641677856,
				0.3250674605369568,
				0.1413230448961258
			],
			"min":[
				-0.2163815200328827,
				-0.5099606513977051,
				-0.14538270235061646
			],
			"type":"VEC3"
		},
		{
			"bufferView":7,
			"componentType":5126,
			"count":10553,
			"type":"VEC3"
		},
		{
			"bufferView":8,
			"componentType":5126,
			"count":10553,
			"type":"VEC2"
		},
		{
			"bufferView":9,
			"componentType":5121,
			"count":10553,
			"normalized":true,
			"type":"VEC4"
		},
		{
			"bufferView":10,
			"componentType":5123,
			"count":10553,
			"normalized":true,
			"type":"VEC4"
		},
		{
			"bufferView":11,
			"componentType":5123,
			"count":58500,
			"type":"SCALAR"
		},
		{
			"bufferView":12,
			"componentType":5126,
			"count":7208,
			"max":[
				0.11940085887908936,
				-0.3832828402519226,
				0.16918951272964478
			],
			"min":[
				-0.1457793414592743,
				-0.5122854709625244,
				-0.0011801272630691528
			],
			"type":"VEC3"
		},
		{
			"bufferView":13,
			"componentType":5126,
			"count":7208,
			"type":"VEC3"
		},
		{
			"bufferView":14,
			"componentType":5126,
			"count":7208,
			"type":"VEC2"
		},
		{
			"bufferView":15,
			"componentType":5121,
			"count":7208,
			"normalized":true,
			"type":"VEC4"
		},
		{
			"bufferView":16,
			"componentType":5123,
			"count":7208,
			"normalized":true,
			"type":"VEC4"
		},
		{
			"bufferView":17,
			"componentType":5123,
			"count":36300,
			"type":"SCALAR"
		},
		{
			"bufferView":18,
			"componentType":5126,
			"count":783,
			"max":[
				0.14879998564720154,
				0.040218815207481384,
				0.16611459851264954
			],
			"min":[
				-0.15666534006595612,
				-0.26351308822631836,
				-0.01808030903339386
			],
			"type":"VEC3"
		},
		{
			"bufferView":19,
			"componentType":5126,
			"count":783,
			"type":"VEC3"
		},
		{
			"bufferView":20,
			"componentType":5126,
			"count":783,
			"type":"VEC2"
		},
		{
			"bufferView":21,
			"componentType":5121,
			"count":783,
			"normalized":true,
			"type":"VEC4"
		},
		{
			"bufferView":22,
			"componentType":5123,
			"count":783,
			"normalized":true,
			"type":"VEC4"
		},
		{
			"bufferView":23,
			"componentType":5123,
			"count":3672,
			"type":"SCALAR"
		}
	],
	"bufferViews":[
		{
			"buffer":0,
			"byteLength":226164,
			"byteOffset":0,
			"target":34962
		},
		{
			"buffer":0,
			"byteLength":226164,
			"byteOffset":226164,
			"target":34962
		},
		{
			"buffer":0,
			"byteLength":150776,
			"byteOffset":452328,
			"target":34962
		},
		{
			"buffer":0,
			"byteLength":75388,
			"byteOffset":603104,
			"target":34962
		},
		{
			"buffer":0,
			"byteLength":150776,
			"byteOffset":678492,
			"target":34962
		},
		{
			"buffer":0,
			"byteLength":215238,
			"byteOffset":829268,
			"target":34963
		},
		{
			"buffer":0,
			"byteLength":126636,
			"byteOffset":1044508,
			"target":34962
		},
		{
			"buffer":0,
			"byteLength":126636,
			"byteOffset":1171144,
			"target":34962
		},
		{
			"buffer":0,
			"byteLength":84424,
			"byteOffset":1297780,
			"target":34962
		},
		{
			"buffer":0,
			"byteLength":42212,
			"byteOffset":1382204,
			"target":34962
		},
		{
			"buffer":0,
			"byteLength":84424,
			"byteOffset":1424416,
			"target":34962
		},
		{
			"buffer":0,
			"byteLength":117000,
			"byteOffset":1508840,
			"target":34963
		},
		{
			"buffer":0,
			"byteLength":86496,
			"byteOffset":1625840,
			"target":34962
		},
		{
			"buffer":0,
			"byteLength":86496,
			"byteOffset":1712336,
			"target":34962
		},
		{
			"buffer":0,
			"byteLength":57664,
			"byteOffset":1798832,
			"target":34962
		},
		{
			"buffer":0,
			"byteLength":28832,
			"byteOffset":1856496,
			"target":34962
		},
		{
			"buffer":0,
			"byteLength":57664,
			"byteOffset":1885328,
			"target":34962
		},
		{
			"buffer":0,
			"byteLength":72600,
			"byteOffset":1942992,
			"target":34963
		},
		{
			"buffer":0,
			"byteLength":9396,
			"byteOffset":2015592,
			"target":34962
		},
		{
			"buffer":0,
			"byteLength":9396,
			"byteOffset":2024988,
			"target":34962
		},
		{
			"buffer":0,
			"byteLength":6264,
			"byteOffset":2034384,
			"target":34962
		},
		{
			"buffer":0,
			"byteLength":3132,
			"byteOffset":2040648,
			"target":34962
		},
		{
			"buffer":0,
			"byteLength":6264,
			"byteOffset":2043780,
			"target":34962
		},
		{
			"buffer":0,
			"byteLength":7344,
			"byteOffset":2050044,
			"target":34963
		}
	],
	"samplers":[
		{
			"magFilter":9729,
			"minFilter":9987
		}
	],
	"buffers":[
		{
			"byteLength":2057388,
			"uri":"Lex3d.bin"
		}
	]
}
